<svg width="512" height="512" xmlns="http://www.w3.org/2000/svg">
 <!--! Font Awesome Free 7.0.1 by @fontawesome - https://fontawesome.com License - https://fontawesome.com/license/free (Icons: CC BY 4.0, Fonts: SIL OFL 1.1, Code: MIT License) Copyright 2025 Fonticons, Inc. -->

 <g>
  <title>Layer 1</title>
  <g>
   <!--! Font Awesome Free 7.0.1 by @fontawesome - https://fontawesome.com License - https://fontawesome.com/license/free (Icons: CC BY 4.0, Fonts: SIL OFL 1.1, Code: MIT License) Copyright 2025 Fonticons, Inc. -->
   <path d="m118.675,73.475c-12.5,-12.5 -32.8,-12.5 -45.3,0s-12.5,32.8 0,45.3l137.4,137.3l-137.3,137.4c-12.5,12.5 -12.5,32.8 0,45.3s32.8,12.5 45.3,0l137.3,-137.4l137.4,137.3c12.5,12.5 32.8,12.5 45.3,0s12.5,-32.8 0,-45.3l-137.4,-137.3l137.3,-137.4c12.5,-12.5 12.5,-32.8 0,-45.3s-32.8,-12.5 -45.3,0l-137.3,137.4l-137.4,-137.3z" fill="currentColor"/>
  </g>
 </g>
</svg>