<svg width="640" height="640" xmlns="http://www.w3.org/2000/svg">
 <!--! Font Awesome Free 7.0.1 by @fontawesome - https://fontawesome.com License - https://fontawesome.com/license/free (Icons: CC BY 4.0, Fonts: SIL OFL 1.1, Code: MIT License) Copyright 2025 Fonticons, Inc. -->

 <g>
  <title>Layer 1</title>
  <path id="svg_1" d="m129.90214,292.5c13.3,-93 93.4,-164.5 190.1,-164.5c53,0 101,21.5 135.8,56.2c0.2,0.2 0.4,0.4 0.6,0.6l7.6,7.2l-47.9,0c-17.7,0 -32,14.3 -32,32s14.3,32 32,32l128,0c17.7,0 32,-14.3 32,-32l0,-128c0,-17.7 -14.3,-32 -32,-32s-32,14.3 -32,32l0,53.4l-11.3,-10.7c-46.3,-46.1 -110.3,-74.7 -180.8,-74.7c-129,0 -235.7,95.4 -253.4,219.5c-2.5,17.5 9.6,33.7 27.1,36.2s33.7,-9.7 36.2,-27.1l0,-0.1zm443.5,64c2.5,-17.5 -9.7,-33.7 -27.1,-36.2s-33.7,9.7 -36.2,27.1c-13.3,93 -93.4,164.5 -190.1,164.5c-53,0 -101,-21.5 -135.8,-56.2c-0.2,-0.2 -0.4,-0.4 -0.6,-0.6l-7.6,-7.2l47.9,0c17.7,0 32,-14.3 32,-32s-14.3,-32 -32,-32l-127.9,0.1c-8.5,0 -16.7,3.4 -22.7,9.5s-9.4,14.2 -9.3,22.8l1,127c0.1,17.7 14.6,31.9 32.3,31.7s31.9,-14.6 31.7,-32.3l-0.4,-51.5l10.7,10.1c46.3,46.1 110.2,74.7 180.7,74.7c129,0 235.7,-95.4 253.4,-219.5z" fill="currentColor"/>
 </g>
</svg>